<svg width="513" height="513" viewBox="0 0 513 513" fill="none" xmlns="http://www.w3.org/2000/svg">
<path d="M124.639 254.317C112.392 212.677 -24.7747 168.588 4.6181 139.195C34.0109 109.802 149.133 161.24 173.627 139.195C198.121 117.151 156.481 -15.117 207.918 2.02879C259.356 19.1746 278.951 95.1061 310.793 90.2073C342.635 85.3085 394.073 -0.42061 430.814 24.0734C467.555 48.5674 401.421 141.645 430.814 163.689C460.207 185.734 504.296 173.487 511.644 220.026C518.993 266.564 477.352 264.115 450.409 295.957C423.466 327.799 482.252 381.686 460.207 418.427C438.162 455.168 359.781 391.484 332.838 398.832C305.895 406.18 313.243 516.403 254.457 511.504C195.671 506.606 237.311 398.832 185.874 374.338C134.436 349.844 56.0555 442.921 34.0109 398.832C11.9663 354.743 136.886 295.957 124.639 254.317Z" fill="#0E8F55" stroke="#0E8F55"/>
<path d="M205.849 263.168C199.287 240.821 125.793 217.159 141.542 201.384C157.29 185.609 218.974 213.215 232.098 201.384C245.222 189.553 222.911 118.567 250.471 127.769C278.032 136.971 288.531 177.722 305.592 175.093C322.654 172.464 350.214 126.454 369.9 139.6C389.586 152.745 354.151 202.698 369.9 214.529C385.649 226.36 409.272 219.788 413.21 244.764C417.147 269.741 394.836 268.426 380.399 285.515C365.963 302.605 397.461 331.525 385.649 351.243C373.837 370.962 331.84 336.783 317.404 340.727C302.968 344.67 306.905 403.825 275.407 401.196C243.909 398.567 266.22 340.727 238.66 327.581C211.099 314.436 169.102 364.389 157.29 340.727C145.479 317.065 212.411 285.515 205.849 263.168Z" fill="#3EA66D" stroke="#0D6D42"/>
</svg>
