<?xml version="1.0" encoding="UTF-8"?>
<svg id="Layer_1" xmlns="http://www.w3.org/2000/svg" version="1.1" viewBox="0 0 160 160">
  <!-- Generator: Adobe Illustrator 29.7.1, SVG Export Plug-In . SVG Version: 2.1.1 Build 8)  -->
  <defs>
    <style>
      .st0 {
        fill: #020202;
      }

      .st1 {
        fill: #43b879;
        stroke: #070505;
        stroke-miterlimit: 10;
        stroke-width: .5px;
      }

      .st2 {
        fill: #14a060;
      }
    </style>
  </defs>
  <path class="st0" d="M124.81,128.08l-10.77-6.56c-5.53-3.37-12.73-.89-15.04,5.18l-8.4,22.01c-3.35,8.78-16.16,7.24-17.35-2.09l-3-23.37c-.82-6.44-7.25-10.56-13.41-8.6l-33.73,10.73c-5.93,1.89-10.44-5.44-6.12-9.94l24.6-25.55c4.49-4.67,3.69-12.29-1.67-15.9l-28.46-19.2c-5.41-3.65-2.38-12.14,4.1-11.51l34.13,3.3c6.43.62,11.86-4.76,11.33-11.23l-1.54-18.72c-.87-10.62,12.95-15.38,18.75-6.45l12.84,19.83c2.14,3.31,6.75,3.87,9.61,1.16l18.73-17.74c7.3-6.91,18.95.56,15.79,10.13l-5.31,16.1c-2.69,8.16,2.61,16.78,11.07,17.99l4.24.61c13.2,1.9,15.13,20.27,2.61,24.89h0c-10.12,3.75-14.39,15.78-8.93,25.12l2.18,3.74c6.18,10.58-5.78,22.45-16.23,16.08h-.01Z"/>
  <path class="st2" d="M120.14,126.32l-10.8-6.58c-5.55-3.38-12.77-.89-15.09,5.2l-8.42,22.08c-3.36,8.81-16.2,7.26-17.41-2.1l-3.01-23.44c-.83-6.46-7.27-10.59-13.45-8.63l-33.83,10.76c-5.95,1.89-10.48-5.45-6.14-9.97l24.68-25.63c4.5-4.69,3.7-12.33-1.68-15.95L6.44,52.8c-5.43-3.66-2.39-12.18,4.11-11.54l34.23,3.31c6.45.62,11.9-4.77,11.36-11.26l-1.54-18.78c-.87-10.65,12.99-15.43,18.8-6.47l12.88,19.89c2.15,3.32,6.77,3.88,9.64,1.16l18.79-17.79c7.32-6.93,19.01.56,15.84,10.17l-5.33,16.15c-2.69,8.19,2.62,16.83,11.11,18.05l4.25.61c13.24,1.9,15.17,20.33,2.62,24.97h0c-10.15,3.76-14.43,15.83-8.96,25.2l2.18,3.75c6.2,10.62-5.8,22.52-16.28,16.13h-.01Z"/>
  <path class="st1" d="M103.57,106.4l-5.72-3.49c-2.94-1.78-6.76-.48-7.99,2.75l-4.47,11.69c-1.78,4.66-8.58,3.84-9.21-1.11l-1.59-12.41c-.44-3.42-3.85-5.61-7.13-4.56l-17.92,5.7c-3.16,1-5.55-2.89-3.25-5.28l13.07-13.57c2.39-2.48,1.97-6.53-.89-8.44l-15.11-10.2c-2.88-1.94-1.26-6.44,2.17-6.11l18.12,1.76c3.41.33,6.3-2.53,6.01-5.97l-.81-9.95c-.46-5.64,6.88-8.16,9.95-3.43l6.82,10.53c1.14,1.76,3.58,2.05,5.1.61l9.95-9.42c3.87-3.67,10.06.29,8.39,5.38l-2.82,8.54c-1.43,4.33,1.38,8.91,5.89,9.56l2.25.33c7,1.01,8.04,10.76,1.4,13.22h0c-5.37,1.99-7.65,8.38-4.75,13.34l1.15,1.98c3.28,5.61-3.07,11.92-8.62,8.54v.04Z"/>
</svg>